<?xml version="1.0" encoding="UTF-8" standalone="no"?>
<svg id="sprite_main" style="background-color:#ffffff00" xmlns="http://www.w3.org/2000/svg" xml:space="preserve" height="106px" width="138px" version="1.1" y="0px" x="0px" xmlns:xlink="http://www.w3.org/1999/xlink" viewBox="0 0 138 106">
	<path fill="#7f7f7f" d="m129.41 76.224h-2.37l0.82-2.462c0.12-0.333 0.26-0.809 0.35-1.226h0.03c0.1 0.417 0.23 0.893 0.35 1.226l0.82 2.462zm-4.13-5.13c-0.5-0.227-1.3-0.433-2.44-0.433-2.06 0-4 1.229-4 4.092 0 2.825 1.91 4.081 4 4.081 0.83 0 1.36-0.061 1.8-0.189l-0.15 0.355h1.23l0.9-1.981h3.21l0.9 1.981h1.27l-3.53-8.192h-0.45l-2.89 6.707c-0.51 0.267-1.24 0.438-2.15 0.438-1.66 0-3.33-1.062-3.33-3.2 0-2.164 1.71-3.213 3.33-3.213 0.86 0 1.68 0.285 2.08 0.544l0.22-0.99zm-8.31 7.906v-8.505h-0.8v8.505h0.8zm-1.73-2.446c0-1.399-0.62-2.164-2.13-2.656-1-0.298-1.54-0.738-1.54-1.283 0-0.609 0.6-1.127 1.57-1.127 0.78 0 1.42 0.272 1.61 0.48l0.15-0.925c-0.19-0.176-0.75-0.382-1.7-0.382-1.89 0-2.47 0.892-2.47 2.045 0 1.14 0.53 1.969 2.05 2.449 1.16 0.324 1.66 0.803 1.66 1.516 0 0.764-0.7 1.282-1.76 1.282-1.04 0-1.63-0.285-2.28-0.842l0.29 1.279c0.3 0.227 0.88 0.444 1.91 0.444 2.01 0 2.64-0.806 2.64-2.28zm-6.63-7.624l-0.25-0.93c-0.71 0.579-1.75 0.987-2.57 1.192l0.65 0.556c0.82-0.193 1.43-0.375 2.17-0.818zm1.19 7.083v-5.518h-0.86v5.384c0 1.27-0.77 2.149-2.36 2.149-1.6 0-2.35-0.879-2.35-2.149v-5.384h-0.8v5.518c0 1.992 0.99 2.821 3.13 2.821s3.24-0.829 3.24-2.821zm-7.58 2.759l-0.74-8.277h-0.78l-2.18 4.392c-0.35 0.71-0.752 1.539-1.012 2.195h-0.026c-0.272-0.656-0.7-1.526-1.038-2.195l-2.205-4.392h-0.612l-0.627 8.277h0.933l0.254-3.59c0.039-0.509 0.103-1.258 0.129-1.914h0.026c0.286 0.629 0.636 1.392 0.922 1.954l1.946 3.608h0.467l1.92-3.608c0.272-0.549 0.673-1.379 0.933-1.981h0.03c0.02 0.629 0.07 1.365 0.13 1.941l0.33 3.59h1.2z"/>
	<path fill="#7f7f7f" d="m57.944 77.887c-0.026-0.167-0.086-0.348-0.157-0.5-0.059-0.128-0.164-0.117-0.334-0.031-0.315 0.159-0.753 0.382-1.411 0.39-1.4 0.017-1.75-0.965-1.784-2.631-0.02-1.031 0.076-2.288 0.177-3.573 1.156-0.04 2.309-0.073 2.835-0.08 0.13-0.002 0.248-0.069 0.262-0.273 0.01-0.152 0.025-0.502 0.024-0.688-0.003-0.269-0.027-0.368-0.27-0.368-0.432 0-1.576 0.057-2.738 0.123 0.068-0.689 0.166-1.644 0.176-1.9 0.01-0.268-0.054-0.403-0.426-0.341-0.14 0.023-0.797 0.184-1.181 0.316-0.393 0.135-0.441 0.219-0.495 0.89-0.026 0.327-0.068 0.722-0.116 1.158l-0.953 0.065c-0.25 0.02-0.385 0.043-0.443 0.261-0.042 0.163-0.105 0.442-0.11 0.663-0.004 0.185 0.077 0.318 0.397 0.297l0.974-0.047c-0.117 1.111-0.225 2.326-0.221 3.362 0.01 2.479 0.928 3.826 2.949 3.959 1.222 0.082 2.173-0.346 2.61-0.653 0.181-0.128 0.261-0.239 0.235-0.399zm24.371-6.882c1.628-0.075 2.697 0.7 2.763 2.514-0.738-0.016-1.9 0.102-2.66 0.26-1.425 0.297-2.96 1.07-3.087 2.653-0.048 0.606 0.097 1.338 0.692 1.875 0.556 0.5 1.119 0.68 2.094 0.693 0.84 0.01 1.625-0.19 2.451-0.538 0.534-0.224 0.757-0.416 0.998-0.416 0.233 0 0.559-0.015 0.856-0.005 0.401 0.013 0.448-0.197 0.47-0.513 0.07-1.008 0.101-2.133 0.107-2.815 0.018-1.991-0.183-2.821-0.86-3.634-0.692-0.831-1.797-1.312-3.589-1.266-0.481 0.013-1.392 0.097-1.678 0.197-0.251 0.088-0.33 0.234-0.325 0.415 0.005 0.161 0.016 0.32 0.122 0.543 0.087 0.184 0.268 0.299 0.483 0.256 0.22-0.043 0.79-0.202 1.163-0.219zm-0.978 5.467c0.05-1.195 1.652-1.883 3.737-1.974 0.024 0.911-0.034 1.874-0.135 2.714-0.491 0.268-1.316 0.689-2.153 0.681-1.052-0.009-1.488-0.501-1.449-1.421zm-4.924-5.007v-0.785c0-0.392 0-0.578-0.272-0.578-0.126 0-0.797 0.041-0.944 0.041-0.503 0-0.566 0-0.608 0.165-0.042 0.207-0.188 5.432-0.188 7.806 0 0.537 0.104 0.537 0.775 0.537 0.168 0 0.755 0 0.922-0.041 0.273-0.041 0.273-0.124 0.294-0.867 0.021-2.189 0.042-3.036 0.147-4.357 0.063-0.661 0.125-1.591 1.844-1.9 1.09-0.207 1.195-0.228 1.195-0.702 0-0.93-0.084-0.93-0.294-0.93-0.335 0-1.068 0.124-1.656 0.393-0.691 0.33-0.922 0.702-1.215 1.218zm-6.13 0v-0.785c0-0.392 0-0.578-0.273-0.578-0.126 0-0.796 0.041-0.943 0.041-0.503 0-0.566 0-0.608 0.165-0.042 0.207-0.189 5.432-0.189 7.806 0 0.537 0.105 0.537 0.776 0.537 0.168 0 0.754 0 0.922-0.041 0.273-0.041 0.273-0.124 0.294-0.867 0.021-2.189 0.042-3.036 0.147-4.357 0.062-0.661 0.125-1.591 1.844-1.9 1.09-0.207 1.195-0.228 1.195-0.702 0-0.93-0.084-0.93-0.293-0.93-0.336 0-1.07 0.124-1.657 0.393-0.691 0.33-0.922 0.702-1.215 1.218zm-10.076 2.581h2.452c0.461 0 2.746 0.042 3.27 0.042 0.776 0 0.839-0.104 0.839-0.723 0-0.372-0.063-1.074-0.398-1.797-0.839-1.755-2.705-1.776-3.145-1.776-3.186 0-5.093 2.499-5.093 4.75 0 2.292 1.949 4.398 4.59 4.398 0.713 0 1.761-0.123 3.061-0.949 0.314-0.207 0.775-0.496 0.775-0.806 0-0.103-0.021-0.888-0.188-0.888-0.126 0-0.168 0.041-0.504 0.289-0.628 0.434-1.593 0.992-2.62 0.992-1.006 0-3.123-0.661-3.039-3.532zm2.892-3.261c1.845 0 1.971 1.733 1.992 2.105-0.566 0.041-4.088 0.082-4.675 0.062 0.671-2.024 2.432-2.167 2.683-2.167z"/>
	<path fill="#fff" d="m44 72v3h-3v2h3v3h2v-3h3v-2h-3v-3h-2zm-2.585-4h-3.926c-1.749 0-2.959 0.396-4.049 1.326-0.856 0.764-1.369 1.874-1.369 2.969 0 1.688 1.246 3.482 3.555 3.482 0.222 0 0.468-0.023 0.685-0.044l-0.032 0.079c-0.093 0.23-0.181 0.447-0.181 0.785 0 0.658 0.307 1.065 0.605 1.457l0.038 0.05-0.067 0.005c-0.953 0.067-2.728 0.193-4.024 1.016-1.531 0.941-1.65 2.308-1.65 2.704 0 1.578 1.423 3.171 4.604 3.171 3.698 0 5.634-2.107 5.634-4.19 0.001-1.539-0.873-2.3-1.801-3.107l-0.783-0.629c-0.242-0.207-0.543-0.464-0.543-0.942 0-0.469 0.301-0.778 0.567-1.052l0.028-0.029c0.845-0.687 1.803-1.467 1.803-3.154 0-1.695-1.026-2.572-1.519-2.993h1.303l0.044-0.013 1.123-0.729c0.031-0.02 0.047-0.061 0.036-0.099-0.011-0.037-0.044-0.063-0.081-0.063zm-4.761 16.071c-2.254 0-3.768-1.087-3.768-2.707 0-1.057 0.619-1.825 1.84-2.282 0.976-0.339 2.238-0.356 2.25-0.356 0.214 0 0.322 0 0.492 0.022 1.577 1.16 2.336 1.769 2.336 2.928 0 1.477-1.207 2.395-3.15 2.395zm-0.02-8.915c-1.893 0-2.678-2.569-2.678-3.946 0-0.699 0.154-1.236 0.471-1.641 0.343-0.444 0.933-0.731 1.5-0.731 1.737 0 2.698 2.412 2.698 4.079 0 0.263 0 1.063-0.535 1.618-0.36 0.371-0.945 0.621-1.456 0.621z"/>
	<path fill="#fff" d="m29 69.774c-0.696 0.3-1.45 0.508-2.238 0.599 0.806-0.469 1.42-1.212 1.716-2.098-0.754 0.434-1.588 0.751-2.481 0.919-0.708-0.733-1.722-1.194-2.841-1.194-2.151 0-3.897 1.696-3.897 3.787 0 0.298 0.036 0.585 0.1 0.863-3.242-0.16-6.111-1.664-8.036-3.958-0.337 0.558-0.529 1.212-0.529 1.906 0 1.313 0.69 2.474 1.734 3.149-0.639-0.016-1.235-0.19-1.762-0.473v0.046c0 1.836 1.344 3.369 3.124 3.718-0.325 0.085-0.672 0.13-1.025 0.13-0.249 0-0.493-0.023-0.736-0.068 0.498 1.505 1.935 2.598 3.641 2.632-1.335 1.014-3.017 1.617-4.842 1.617-0.313 0-0.621-0.017-0.928-0.051 1.728 1.076 3.774 1.702 5.977 1.702 7.167 0 11.087-5.77 11.087-10.774l-0.012-0.49c0.765-0.535 1.426-1.2 1.948-1.962z"/>
	<path fill="#fff" d="m2 70.798v2.202h-2v3h2v8h3v-8h2.3836s0.5039-1.588 0.6127-3h-2.9963v-1.647c0-0.275 0.3869-0.353 0.7701-0.353h2.2299v-3h-2.6319c-3.7265 0-3.3681 2.696-3.3681 3.099v-0.301zm-0.271 0.301z"/>
	<path fill="#444" d="m133.07 53.51l-9.07 9.072v2.418h2.38l9.1-9.078-2.41-2.412zm2.52-2.51l-1.71 1.669 2.42 2.418 1.7-1.673-2.41-2.414z"/>
	<path fill="#434343" d="m118.52 64c1.37 0 2.48-1.11 2.48-2.478v-12.392c0-1.368-1.11-2.478-2.48-2.478v2.065c0 1.141-0.92 2.066-2.06 2.066s-2.07-0.925-2.07-2.066v-2.065h-5.78v2.065c0 1.141-0.93 2.066-2.07 2.066s-2.06-0.925-2.06-2.066v-2.065c-1.37 0-2.48 1.11-2.48 2.478v12.392c0 1.368 1.11 2.478 2.48 2.478h14.04zm0.83-12.391v10.739h-15.7v-10.739h15.7zm-10.56 1.687v2.166h3.11c-1.05 1.542-1.91 3.188-1.95 4.875h2.86c0.09-2.167 0.97-3.76 2.13-5.156v-1.885h-6.15zm-3.49-7.47v3.304h2.48v-3.304h-0.08c-0.17-0.479-0.62-0.826-1.16-0.826-0.53 0-0.98 0.347-1.15 0.826h-0.09zm9.92 3.304h2.48v-3.304h-0.09c-0.17-0.479-0.62-0.826-1.15-0.826-0.54 0-0.99 0.347-1.16 0.826h-0.08v3.304z"/>
	<path fill="#fff" d="m16.522 105c1.368 0 2.478-1.11 2.478-2.48v-12.39c0-1.368-1.11-2.478-2.478-2.478v2.065c0 1.141-0.925 2.066-2.066 2.066-1.14 0-2.065-0.925-2.065-2.066v-2.065h-5.7824v2.065c0 1.141-0.9245 2.066-2.0651 2.066-1.1407 0-2.0652-0.925-2.0652-2.066v-2.065c-1.3688 0-2.4783 1.11-2.4783 2.478v12.39c0 1.37 1.1095 2.48 2.4783 2.48h14.044zm0.826-12.391v10.741h-15.696l0.0002-10.741h15.696zm-10.554 1.687v2.166h3.1022c-1.0449 1.542-1.9048 3.188-1.9484 4.878h2.8625c0.087-2.17 0.969-3.763 2.134-5.159v-1.885h-6.1503zm-3.4894-7.47v3.304h2.4783v-3.304h-0.0834c-0.1714-0.479-0.6178-0.826-1.1557-0.826s-0.9844 0.347-1.1558 0.826h-0.0834zm9.9127 3.304h2.479v-3.304h-0.084c-0.171-0.479-0.618-0.826-1.156-0.826-0.537 0-0.984 0.347-1.155 0.826h-0.084v3.304z"/>
	<path fill="#bbb" d="m99.707 51.707c0.943-0.943-0.471-2.357-1.414-1.414l-4.793 4.792-1.793-1.792c-0.943-0.943-2.357 0.471-1.414 1.414l3.207 3.208 6.207-6.208z"/>
	<path fill="#999" d="m79.229 50.039l-0.84 1.734c-0.605 0.157-1.115 0.369-1.653 0.685l-1.82-0.632c-0.417 0.343-0.747 0.673-1.09 1.09l0.632 1.82c-0.317 0.538-0.528 1.049-0.684 1.653l-1.735 0.84c-0.052 0.538-0.052 1.004 0 1.542l1.735 0.84c0.156 0.604 0.367 1.115 0.684 1.653l-0.632 1.82c0.343 0.417 0.673 0.747 1.09 1.09l1.82-0.632c0.538 0.316 1.048 0.528 1.653 0.685l0.84 1.734c0.538 0.052 1.004 0.052 1.542 0l0.84-1.734c0.605-0.157 1.115-0.369 1.653-0.685l1.82 0.632c0.417-0.343 0.747-0.673 1.09-1.09l-0.632-1.82c0.317-0.538 0.528-1.049 0.684-1.653l1.735-0.84c0.052-0.538 0.052-1.004 0-1.542l-1.735-0.84c-0.156-0.604-0.367-1.115-0.684-1.653l0.632-1.82c-0.343-0.417-0.673-0.747-1.09-1.09l-1.82 0.632c-0.538-0.316-1.048-0.528-1.653-0.685l-0.84-1.734c-0.538-0.052-1.004-0.052-1.542 0zm0.771 5.573c1.318 0 2.388 1.07 2.388 2.388s-1.07 2.388-2.388 2.388-2.388-1.07-2.388-2.388 1.07-2.388 2.388-2.388z"/>
	<path fill="#444" d="m66 56h2v2h-2v-2zm-9-2c-1.657 0-3 1.343-3 3v5h3v3h10v-3h3v-5c0-1.657-1.343-3-3-3h-10zm2 5h6v4h-6v-4zm-1-9v3h8v-3h-8z"/>
	<path fill="#444" d="m41 52h6c0.552 0 1 0.448 1 1v8c0 0.552-0.448 1-1 1h-6c-0.552 0-1-0.448-1-1v-8c0-0.552 0.448-1 1-1zm-1-2c-1.105 0-2 0.895-2 2v12c0 1.105 0.895 2 2 2h8c1.105 0 2-0.895 2-2v-12c0-1.105-0.895-2-2-2h-8zm3 14c0-0.552 0.448-1 1-1s1 0.448 1 1-0.448 1-1 1-1-0.448-1-1z"/>
	<path fill="#444" d="m33 54l-1-1v1h1zm0-2l1 1v-1h-1zm-2-0.03l-0.03 0.03h0.03v-0.03zl-1-0.97v1h0.97l0.03-0.03zm1-1l-0.03 0.03h0.03v-0.03zv-0.97h-1l0.97 1 0.03-0.03zm-3.344 5.374l3.344-3.344 1-1 0.438-0.438-1-1.031-0.438 0.439v0.03h-0.03l-0.97 0.97v0.03h-0.03l-3.501 3.484c-1.045-1.012-2.219-1.906-3.539-0.57-0.614 0.622-0.368 1.648-1.024 2.055-0.755 0.467-2.471-0.412-3.978 1.034-1.397 1.341-1.141 4.302 0.813 6.255s4.769 2.33 6.263 0.817c1.402-1.419 0.34-3.481 1.09-4.106 0.241-0.201 1.5 0.031 2.187-0.781 0.308-0.364 0.623-0.783 0.657-1.219-1.5 0.25-1.844 0.172-2.188-0.907-0.26-0.814 0.906-1.718 0.906-1.718zm-4.482 1.548c0.545-0.544 1.429-0.542 1.974 0.003 0.546 0.545 0.546 1.428 0.001 1.971-0.545 0.544-1.429 0.543-1.974-0.002-0.546-0.545-0.546-1.428-0.001-1.972z"/>
	<path fill="#444" d="m1 56c-1.1046 0-1 0.895-1 2s-0.1046 2 1 2h5v5c0 1.105 0.8954 1 2 1s2 0.105 2-1v-5h5c1.105 0 1-0.895 1-2s0.105-2-1-2h-5v-5c0-1.105-0.8954-1-2-1s-2-0.105-2 1v5h-5z"/>
	<path fill="#fff" d="m132 35v2h-2v1h2v2h1v-2h2v-1h-2v-2h-1zm-3.06-3h-2.61c-1.17 0-1.98 0.28-2.7 0.936-0.57 0.539-0.92 1.322-0.92 2.096 0 1.191 0.83 2.458 2.37 2.458 0.15 0 0.32-0.017 0.46-0.032l-0.02 0.057c-0.06 0.162-0.12 0.315-0.12 0.553 0 0.465 0.2 0.752 0.4 1.029l0.03 0.035-0.05 0.004c-0.63 0.047-1.82 0.136-2.68 0.717-1.02 0.664-1.1 1.629-1.1 1.909 0 1.114 0.95 2.238 3.07 2.238 2.47 0 3.76-1.487 3.76-2.957 0-1.087-0.59-1.624-1.21-2.194l-0.52-0.444c-0.16-0.146-0.36-0.327-0.36-0.665 0-0.331 0.2-0.549 0.38-0.742l0.02-0.021c0.56-0.485 1.2-1.036 1.2-2.226 0-1.197-0.68-1.815-1.01-2.113h0.87l0.03-0.009 0.74-0.515c0.02-0.014 0.03-0.043 0.03-0.069-0.01-0.027-0.03-0.045-0.06-0.045zm-3.17 11.344c-1.5 0-2.51-0.767-2.51-1.91 0-0.746 0.41-1.289 1.22-1.611 0.66-0.24 1.5-0.252 1.5-0.252 0.15 0 0.22 0 0.33 0.016 1.05 0.818 1.56 1.248 1.56 2.067 0 1.042-0.81 1.69-2.1 1.69zm-0.01-6.293c-1.27 0-1.79-1.813-1.79-2.785 0-0.494 0.1-0.872 0.31-1.158 0.23-0.314 0.63-0.517 1-0.517 1.16 0 1.8 1.703 1.8 2.88 0 0.185 0 0.75-0.35 1.142-0.24 0.262-0.63 0.438-0.97 0.438z"/>
	<path fill="#fff" d="m120 33.065c-0.4 0.18-0.84 0.304-1.3 0.359 0.47-0.282 0.83-0.728 1-1.259-0.44 0.261-0.92 0.45-1.44 0.551-0.41-0.439-1-0.716-1.64-0.716-1.25 0-2.26 1.018-2.26 2.272 0 0.179 0.02 0.351 0.06 0.518-1.88-0.096-3.54-0.998-4.65-2.375-0.2 0.335-0.31 0.727-0.31 1.144 0 0.787 0.4 1.484 1 1.889-0.37-0.009-0.71-0.114-1.02-0.284v0.028c0 1.102 0.78 2.021 1.81 2.231-0.19 0.051-0.39 0.078-0.59 0.078-0.15 0-0.29-0.014-0.43-0.041 0.29 0.903 1.12 1.559 2.11 1.579-0.77 0.609-1.75 0.97-2.8 0.97-0.18 0-0.36-0.01-0.54-0.03 1 0.646 2.19 1.021 3.46 1.021 4.15 0 6.42-3.462 6.42-6.464l-0.01-0.294c0.45-0.322 0.83-0.721 1.13-1.177z"/>
	<path fill="#fff" d="m103 33.486v2.514h-1v2h1v5h2v-5h1.49s0.44-1.029 0.51-2h-2v-2h2v-2h-1.9c-2.32 0-2.1 1.854-2.1 2.13v-0.644zm0.08 0.644z"/>
	<path fill="#444" d="m90.293 33.707l2.292 2.293 1.415 1.415 1.415-1.415 2.292-2.293c0.943-0.943-0.471-2.357-1.414-1.414l-2.293 2.292-2.293-2.292c-0.943-0.943-2.357 0.471-1.414 1.414z"/>
	<path fill="#444" d="m78.293 33.707l3.292 3.293-3.292 3.293c-0.943 0.943 0.471 2.357 1.414 1.414l3.293-3.292 3.293 3.292c0.943 0.943 2.357-0.471 1.414-1.414l-3.292-3.293 3.292-3.293c0.943-0.943-0.471-2.357-1.414-1.414l-3.293 3.292-3.293-3.292c-0.943-0.943-2.357 0.471-1.414 1.414z"/>
	<path fill="#fff" d="m66.293 33.707l3.292 3.293-3.292 3.293c-0.943 0.943 0.471 2.357 1.414 1.414l3.293-3.292 3.293 3.292c0.943 0.943 2.357-0.471 1.414-1.414l-3.292-3.293 3.292-3.293c0.943-0.943-0.471-2.357-1.414-1.414l-3.293 3.292-3.293-3.292c-0.943-0.943-2.357 0.471-1.414 1.414z"/>
	<path fill="#fff" d="m63.707 33.707c0.943-0.943-0.471-2.357-1.414-1.414l-4.793 4.792-1.793-1.792c-0.943-0.943-2.357 0.471-1.414 1.414l3.207 3.208 6.207-6.208z"/>
	<path fill="#999" d="m38 39c0-2.762 2.238-5 5-5s5 2.238 5 5-2.238 5-5 5-5-2.238-5-5zm-2 0c0 3.866 3.134 7 7 7 1.575 0 3.03-0.522 4.2-1.4l0.093 0.107 3 3c0.943 0.943 2.357-0.471 1.414-1.414l-3-3-0.107-0.093c0.878-1.169 1.4-2.624 1.4-4.2 0-3.866-3.134-7-7-7s-7 3.134-7 7z"/>
	<path fill="#7f8200" d="m20 39c0-2.762 2.238-5 5-5s5 2.238 5 5-2.238 5-5 5-5-2.238-5-5zm-2 0c0 3.866 3.134 7 7 7 1.575 0 3.03-0.522 4.2-1.4l0.093 0.107 3 3c0.943 0.943 2.357-0.471 1.414-1.414l-3-3-0.107-0.093c0.878-1.17 1.4-2.624 1.4-4.2 0-3.866-3.134-7-7-7s-7 3.134-7 7z"/>
	<path fill="#b7b700" d="m2 39c0-2.762 2.2385-5 5-5s5 2.238 5 5-2.2385 5-5 5-5-2.238-5-5zm-2 0c0 3.866 3.134 7 7 7 1.5752 0 3.03-0.522 4.2-1.4l0.093 0.107 3 3c0.943 0.943 2.357-0.471 1.414-1.414l-3-3-0.107-0.093c0.878-1.169 1.4-2.624 1.4-4.2 0-3.866-3.134-7-7-7s-7 3.134-7 7z"/>
	<path fill="#fff" d="m118 23c0 0.258 0.1 0.497 0.26 0.675l0.03 0.032 5 5c0.95 0.943 2.36-0.471 1.42-1.414l-3.29-3.293h11.58c0.55 0 1-0.448 1-1s-0.45-1-1-1h-11.58l3.29-3.293c0.94-0.943-0.47-2.357-1.42-1.414l-5 5c-0.18 0.181-0.29 0.43-0.29 0.707zm0.29-0.707c-0.45 0.457-0.36 1.025-0.03 1.382-0.16-0.178-0.26-0.417-0.26-0.675 0-0.277 0.11-0.526 0.29-0.707z"/>
	<path fill="#b7b700" d="m100 23c0 0.258 0.1 0.497 0.26 0.675l0.03 0.032 5 5c0.95 0.943 2.36-0.471 1.42-1.414l-3.29-3.293h11.58c0.55 0 1-0.448 1-1s-0.45-1-1-1h-11.58l3.29-3.293c0.94-0.943-0.47-2.357-1.42-1.414l-5 5c-0.18 0.181-0.29 0.43-0.29 0.707zm0.29-0.707c-0.454 0.456-0.358 1.025-0.03 1.382-0.16-0.178-0.26-0.417-0.26-0.675 0-0.277 0.11-0.526 0.29-0.707z"/>
	<path fill="#fff" d="m101 12c-0.55 0-1 0.448-1 1v1c0 0.552 0.45 1 1 1h22c0.55 0 1-0.448 1-1v-1c0-0.552-0.45-1-1-1h-22zm0-6c-0.55 0-1 0.4477-1 1v1c0 0.5523 0.45 1 1 1h22c0.55 0 1-0.4477 1-1v-1c0-0.5523-0.45-1-1-1h-22zm0-6c-0.55 0-1 0.4477-1 1v1c0 0.5523 0.45 1 1 1h22c0.55 0 1-0.4477 1-1v-1c0-0.5523-0.45-1-1-1h-22z"/>
	<path fill="#fff" d="m89.382 8.0591c0.686 0.9807 1.746 0.8325 4.462 0.3994-2.913 3.8065-2.933 2.1835-0.894 6.4865-4.528-1.557-2.77-1.857-6.264 1.4 0.093-4.754 0.742-3.337-3.48-5.629 4.606-1.3854 3.641-0.281 4.535-4.9855l1.641 2.3286zm-70.588 4.0089c2.015-0.201 1.054 3.172 0.207 4.65-0.993 1.732-3.282 3.849-4.331 4.381-0.065-7.171 2.801-8.899 4.124-9.031zm13.303 0.872h2.733s1.822 0.17 1.196 3.803c-0.154 0.895-0.214 1.645-1.082 4.185-1.482 4.333-2.819 5.874-4.214 5.86-1.21-0.012-1.295-1.972-0.982-4.356 0.316-2.402 2.349-9.492 2.349-9.492zm-8.401-0.065c0.409 0.081 1.027 0.065 1.938 0.065h1.537s-0.845 3.847-1.468 6.897c-0.063 0.014-0.106 0.034-0.106 0.034s-3.399 6.666-7.253 7.051c-3.251 0.323-3.346-3.54-3.346-3.54s9.58-2.511 8.707-10.437l-0.009-0.07zm36.189 2.562s-1.11 4.995-1.139 6.13c-0.028 1.135-2.249 5.221-4.1 5.221-1.85 0-2.619-3.66-1.366-7.945 1.252-4.285 3.046-6.357 4.327-6.357 1.282 0 2.392 1.504 2.278 2.951zm16.387 4.768s1.47 1.588 1.903 3.673c0.487 2.346-1.379 2.912-2.841 2.912-1.463 0-2.265-1.009-2.329-2.234-0.072-1.387 3.267-4.351 3.267-4.351zm-7.504 4.427c1.259-3.052 3.569-10.284 3.661-10.284 0.221 0 2.099 2.813 2.422 3.574-2.267 2.151-3.825 4.207-4.166 5.162-0.702 1.964-1.368 6.882 5.345 6.882 2.626 0 7.114-2.481 6.655-6.584-0.174-1.556-2.234-5.328-2.234-5.328s2.549-1.804 3.774-2.104c-0.121 6.474 0.089 5.924 5.797 0.61 8.063 2.766 7.835 3.012 4.222-4.644l3.288-4.2873c2.263-2.9514-4.316-1.503-6.138-1.2722-4.93-7.0662-5.123-7.0118-6.718 1.4397l-4.964 1.5632c-2.533 1.0406 0.208 2.5916 2.495 3.6906-2.201 1.144-3.701 2.092-3.701 2.092s-2.987-4.256-3.601-5.3143c-0.615-1.0591-1.87-0.9197-2.28-0.7027-0.687 0.364-2.206 1.219-2.587 2.159-0.74 1.82-2.788 10.812-4.003 13.234-0.552 1.1-1.475 2.306-2.264 2.218-0.522-0.19-0.866-0.846-0.817-2.215v-0.012l0.002-0.018 0.001-0.022 0.001-0.024 0.002-0.04c0.199-3.917 2.895-11.231 3.388-12.032 0.769-1.249 0.667-2.06 0.086-2.7248-1.059-1.2107-4.147-1.0535-5.372 2.3518 0 0-1.35-3.0625-4.624-3.0625-3.275 0-7.628 4.8255-8.34 10.926-0.212 1.814-0.299 3.39-0.206 4.724-0.836 1.105-1.887 2.186-2.798 2.186-1.95 0-2.135-2.795-0.185-7.477 1.09-2.616 1.324-3.321 1.537-3.86 0.214-0.539 1.557-3.131-1.366-3.178-1.78-0.028-2.05 0.681-3.417 0.681-1.366 0-2.277-0.284-1.665-2.426 0.595-2.0843-0.299-3.4339-2.15-3.4764-1.893-0.0437-2.082 0.9624-2.31 0.9624h-1.85l1.825-6.1838s0.266-1.8162-1.822-1.8162c-3.986 0-5.015 8-5.015 8s-4.784 0.4112-5.574 2.998c-0.916-1.5954-2.686-2.206-4.496-2.0256-2.381 0.2373-8.24 3.9356-8.8168 10.828-0.0466 0.557-0.0649 1.083-0.0586 1.583-1.4187 3.986-2.7604 5.381-4.1056 5.367-1.2099-0.012-1.2485-1.934-0.9322-4.318 0.5268-3.968 5.7652-20.616 5.7652-20.616 0 0.0002 0.266-1.816-1.8219-1.816-3.1725 0-4.5934 5.2593-6.0984 11.044-0.94 3.613-2.2422 10.475-2.4431 11.658-0.4176 2.459 0.4699 7.264 4.2139 7.264 3.0901 0 5.0478-1.914 6.3395-4.177 1.719 3.635 5.364 4.328 6.683 4.196 2.275-0.227 5.84-1.713 7.741-5.505 0.154 2.475 1.328 5.486 4.292 5.486 4.555 0 5.778-2.746 7.032-5.547 1.182-2.639 2.121-8.074 3.445-8.074s0.873 0.53 0.683 1.135c-0.189 0.606-1.518 4.957-1.366 6.811s0.46 5.675 4.299 5.675c2.335 0 4.035-1.519 5.006-2.704 0.767 1.79 2.323 2.704 5.044 2.704 3.218 0 5.325-3.916 5.325-3.916s0.198 3.894 3.332 3.916h0.027 0.007 0.007 0.007 0.007 0.007 0.006 0.007c1.173 0.004 4.283 0.113 6.529-5.334z"/>
</svg>
